<svg viewBox="0 0 400 300" xmlns="http://www.w3.org/2000/svg"><path d="m294.29 43.75h60.07v41.3h-60.07z" fill="#ffd200"/><g fill="#fff"><path d="m316.25 72.51a1.41 1.41 0 0 1 -.86-.3l-9-7.12a1.35 1.35 0 0 1 -.53-1.08 1.38 1.38 0 0 1 .52-1.09l9-7.25a1.39 1.39 0 1 1 1.75 2.17l-7.65 6.16 7.64 6a1.39 1.39 0 0 1 -.87 2.48z"/><path d="m332.56 72.51a1.39 1.39 0 0 1 -.86-2.51l7.63-6-7.64-6.15a1.39 1.39 0 1 1 1.74-2.17l9 7.25a1.34 1.34 0 0 1 .57 1.07 1.37 1.37 0 0 1 -.52 1.08l-9 7.12a1.41 1.41 0 0 1 -.92.31z"/><path d="m320.63 72.51a1.33 1.33 0 0 1 -.58-.13 1.39 1.39 0 0 1 -.69-1.84l6.56-14.37a1.4 1.4 0 0 1 1.85-.68 1.38 1.38 0 0 1 .68 1.84l-6.56 14.37a1.39 1.39 0 0 1 -1.26.81z"/></g><path d="m62.8 40.58h67.91v113.64h-67.91z" fill="#24285b"/><path d="m148.7 41h125.79v87.59h-125.79z" fill="#e6e6e6"/><path d="m148.7 128.58h125.79v86h-125.79z" fill="#e6e6e6"/><path d="m162.44 142.41h99.51v40.84h-99.51z" fill="#c9c9c9"/><path d="m191.75 188.32h39.54v18.94h-39.54z" fill="#c9c9c9"/><path d="m156.91 49.14h109.25v69.02h-109.25z" fill="#24285b"/><path d="m188.83 97.08h35.09v3.93h-35.09z" fill="#68e1fd"/><path d="m198.9 86.14h31.37v3.93h-31.37z" fill="#ffd200"/><path d="m198.9 106.57h41.82v3.93h-41.82z" fill="#68e1fd"/><path d="m175.81 106.57h15.73v3.93h-15.73z" fill="#fff"/><path d="m165.75 97.08h15.73v3.93h-15.73z" fill="#fff"/><circle cx="164.06" cy="55.76" fill="#fff" r="1.85"/><path d="m188.83 150.23s13.06-2.72 10.07 9.88 7 10.89 5.06 20.76-15.13 33.71-15.13 33.71h-24.77l12.6-46.43z" opacity=".08"/><circle cx="169.56" cy="55.76" fill="#68e1fd" r="1.85"/><path d="m248.67 154.94s12.24-5.64 17.48 5.08 8.34 13.49 8.34 13.49v33.75l-26.84-20.17z" opacity=".08"/><circle cx="174.75" cy="55.76" fill="#ffd200" r="1.85"/><path d="m165.75 67.21h15.73v3.93h-15.73z" fill="#fff"/><path d="m175.81 77.03h15.73v3.93h-15.73z" fill="#fff"/><path d="m198.9 77.03h31.37v3.93h-31.37z" fill="#ffd200"/><path d="m175.81 86.14h15.73v3.93h-15.73z" fill="#fff"/><path d="m187.76 67.21h32.4v3.93h-32.4z" fill="#68e1fd"/><path d="m226.94 67.21h23v3.93h-23z" fill="#68e1fd"/><path d="m247.65 194.74s-16.59-4.08-15.32-14 12-4.34 12-4.34-2.81-13.51-6.89-17.35 4.59-10.44 11.23-4.07 7.92 1.26 13.28 7.89 5.36 25.49 5.36 25.49z" fill="#f4a28c"/><path d="m247.65 194.75 14.3 56.68 31.15-12.26-25.79-50.85z" fill="#68e1fd"/><path d="m178.8 189.38s16.59-4.09 15.32-14-12-4.34-12-4.34 2.8-13.5 6.89-17.35-4.6-10.43-11.24-4.07-7.91 1.26-13.27 7.9-5.36 25.48-5.36 25.48z" fill="#f4a28c"/><path d="m178.8 189.38-14.3 56.68-31.15-12.26 25.79-50.85z" fill="#68e1fd"/><path d="m83.74 75.36h24.92v41.36" fill="none" stroke="#fff" stroke-miterlimit="10"/><path d="m73.01 50.49h32.94v5.27h-32.94z" fill="#ffd200"/><path d="m75.06 69.97h17.36v10.78h-17.36z" fill="#68e1fd"/><path d="m83.74 116.72h24.63" fill="none" stroke="#fff" stroke-miterlimit="10"/><path d="m99.98 91.16h17.36v10.78h-17.36z" fill="#68e1fd"/><path d="m75.06 111.33h17.36v10.78h-17.36z" fill="#68e1fd"/><path d="m99.69 111.33h17.36v10.78h-17.36z" fill="#68e1fd"/><path d="m75.06 136.53h42v7.66h-42z" fill="#fff" opacity=".1"/><path d="m294.08 103.91h69.87v40.41h-69.87z" fill="#e6e6e6"/><circle cx="306.02" cy="116.76" fill="#24285b" r="4.06"/><circle cx="306.02" cy="130.89" fill="#68e1fd" r="4.06"/><path d="m315.4 113.99h36.61v4.94h-36.61z" fill="#c9c9c9"/><path d="m315.4 128.28h36.61v4.94h-36.61z" fill="#c9c9c9"/></svg>